#N canvas 629 98 688 299 10;
#X obj 35 69 print OSCmsg;
#X obj 33 15 dumpOSC 7771;
#X obj 67 182 print;
#X obj 184 158 unpack f;
#X obj 170 81 OSCroute /osc;
#X obj 171 124 OSCroute /1;
#X obj 169 219 dac~ 1;
#X obj 315 155 unpack f;
#X obj 300 216 dac~ 2;
#X obj 302 121 OSCroute /2;
#X obj 299 184 osc~ 100;
#X obj 168 187 osc~ 0;
#X connect 1 0 0 0;
#X connect 1 0 4 0;
#X connect 3 0 11 0;
#X connect 4 0 5 0;
#X connect 4 0 9 0;
#X connect 5 0 2 0;
#X connect 5 0 3 0;
#X connect 7 0 10 0;
#X connect 9 0 7 0;
#X connect 10 0 8 0;
#X connect 11 0 6 0;
